2<?xml version="1.0" encoding="utf-8"?>
<!-- Generator: Adobe Illustrator 24.3.0, SVG Export Plug-In . SVG Version: 6.00 Build 0)  -->
<svg version="1.1" id="Layer_1" xmlns="http://www.w3.org/2000/svg" xmlns:xlink="http://www.w3.org/1999/xlink" x="0px" y="0px"
	 viewBox="0 0 800 800" enable-background="new 0 0 800 800" xml:space="preserve">
<g>
	<path fill="#58C7DE" d="M729.084,540.815c2.503,10.76-2.347,20.986-5.281,31.438c-3.79,13.505-7.58,27.009-11.37,40.514
		c-2.264,8.067-4.736,15.638-5.48,23.913c-0.883,9.821,2.182,22.772-4.38,31.141c-3.087,3.937-7.804,5.438-12.939,5.963h-13.432
		v0.066c-1.067-0.033-2.126-0.065-3.127-0.065c-11.938,0-11.958,18.553,0,18.553c3.759,0,7.585,0.058,11.376-0.001h16.355
		c3.044,0,5.617,2.575,5.617,5.621v24.917c0,3.046-2.573,5.619-5.617,5.619h-104.56c-3.048,0-5.621-2.573-5.621-5.619v-24.917
		c0-0.294,0.027-0.583,0.071-0.865c0.425-2.71,2.808-4.756,5.55-4.756h20.526c1.259,0.002,2.517,0.001,3.77,0.001
		c11.938,0,11.958-18.553,0-18.553c-0.311,0-0.624,0.006-0.937,0.009v-0.01h-11.575c-6.629-0.466-12.498-2.472-16.053-9.85
		c-4.258-8.838-0.639-20.992-1.876-30.346c-0.931-7.041-3.57-14.005-5.483-20.821c-5.742-20.462-18.359-46.675-17.371-68.084
		c4.868-21.346,18.39-29.662,34.786-32.786c12.828,25.916,25.654,51.831,38.482,77.747c2.997,6.056,13.022,6.056,16.02,0
		c12.9-26.062,25.799-52.124,38.699-78.186C711.231,514.389,724.714,522.021,729.084,540.815z"/>
	<path fill="#58C7DE" d="M70.759,544.682c4.867-21.346,18.389-29.662,34.786-32.786c12.828,25.916,25.655,51.831,38.482,77.747
		c2.997,6.056,13.022,6.056,16.02,0c12.9-26.062,25.799-52.124,38.699-78.186c15.995,2.933,29.478,10.564,33.848,29.358
		c2.503,10.76-2.347,20.986-5.28,31.438c-3.79,13.505-7.58,27.009-11.37,40.514c-2.264,8.067-4.736,15.638-5.48,23.913
		c-0.883,9.821,2.182,22.772-4.379,31.141c-3.087,3.937-7.804,5.438-12.94,5.963h-13.43v0.066c-1.067-0.033-2.127-0.065-3.129-0.065
		c-11.938,0-11.958,18.553,0,18.553c3.759,0,7.585,0.058,11.376-0.001h16.353c3.048,0,5.621,2.575,5.621,5.621v24.917
		c0,3.046-2.573,5.619-5.621,5.619H99.759c-3.048,0-5.621-2.573-5.621-5.619v-24.917c0-0.281,0.018-0.557,0.063-0.827l-9.163-1.452
		l9.168,1.422c0.421-2.716,2.808-4.765,5.553-4.765h20.523c1.259,0.002,2.517,0.001,3.77,0.001c11.938,0,11.958-18.553,0-18.553
		c-0.312,0-0.626,0.006-0.939,0.009v-0.01H111.54c-6.629-0.466-12.498-2.472-16.052-9.85c-4.258-8.838-0.639-20.992-1.876-30.346
		c-0.931-7.041-3.57-14.005-5.482-20.821C82.387,592.304,69.77,566.092,70.759,544.682z"/>
	<path d="M79.984,675.218c0.982,1.97,2.095,3.682,3.295,5.225c-3.819,3.587-6.551,8.349-7.402,13.785l-0.003,0
		c-0.001,0.005,0,0.011-0.001,0.016c-0.001,0.005-0.003,0.008-0.003,0.013l0.002,0c-0.188,1.207-0.288,2.442-0.288,3.7v24.917
		c0,13.328,10.844,24.172,24.174,24.172h104.556c13.33,0,24.174-10.844,24.174-24.172v-24.917c0-6.944-2.983-13.167-7.687-17.58
		c1.397-1.809,2.661-3.875,3.754-6.267c7.219-15.807,3.097-34.389,7.771-51.04c8.483-30.228,29.471-69.985,12.922-100.467
		c-10.821-19.932-28.252-27.353-47.568-29.973c13.823-12.492,22.574-30.496,22.574-50.551c0-37.613-30.602-68.215-68.219-68.215
		c-37.613,0-68.215,30.602-68.215,68.215c0,20.206,8.881,38.333,22.886,50.835c-0.447,0.251-0.872,0.542-1.283,0.856
		c-25.082,3.839-46.166,14.962-52.848,47.212c-0.1,0.485-0.116,0.94-0.149,1.401c-0.062,0.354-0.155,0.686-0.182,1.065
		c-2.047,28.631,15.932,58.935,21.519,86.802C76.7,644.907,73.02,661.236,79.984,675.218z M152.036,564.095
		c-8.904-17.989-17.807-35.978-26.711-53.967c8.189-0.145,16.514,0.168,24.404,0.168c0.595,0,1.236-0.018,1.845-0.023
		c0.155,0.001,0.305,0.023,0.461,0.023c0.259,0,0.51-0.036,0.769-0.039c8.008-0.115,17.024-0.582,26.111-0.465
		C169.955,527.893,160.996,545.994,152.036,564.095z M102.373,442.079c0-27.383,22.276-49.662,49.662-49.662
		s49.666,22.279,49.666,49.662c0,26.594-21.028,48.31-47.322,49.546c-1.158,0.024-2.313,0.044-3.459,0.062
		C124.052,491.086,102.373,469.088,102.373,442.079z M70.759,544.682c4.867-21.346,18.389-29.662,34.786-32.786
		c12.828,25.916,25.655,51.831,38.482,77.747c2.997,6.056,13.022,6.056,16.02,0c12.9-26.062,25.799-52.124,38.699-78.186
		c15.995,2.933,29.478,10.564,33.848,29.358c2.503,10.76-2.347,20.986-5.28,31.438c-3.79,13.505-7.58,27.009-11.37,40.514
		c-2.264,8.067-4.736,15.638-5.48,23.913c-0.883,9.821,2.182,22.772-4.379,31.141c-3.087,3.937-7.804,5.438-12.94,5.963h-13.43
		v0.066c-1.067-0.033-2.127-0.065-3.129-0.065c-11.938,0-11.958,18.553,0,18.553c3.759,0,7.585,0.058,11.376-0.001h16.353
		c3.048,0,5.621,2.575,5.621,5.621v24.917c0,3.046-2.573,5.619-5.621,5.619H99.759c-3.048,0-5.621-2.573-5.621-5.619v-24.917
		c0-0.281,0.018-0.557,0.063-0.827l-9.163-1.452l9.168,1.422c0.421-2.716,2.808-4.765,5.553-4.765h20.523
		c1.259,0.002,2.517,0.001,3.77,0.001c11.938,0,11.958-18.553,0-18.553c-0.312,0-0.626,0.006-0.939,0.009v-0.01H111.54
		c-6.629-0.466-12.498-2.472-16.052-9.85c-4.258-8.838-0.639-20.992-1.876-30.346c-0.931-7.041-3.57-14.005-5.482-20.821
		C82.387,592.304,69.77,566.092,70.759,544.682z"/>
	<path d="M150.633,691.738c4.792,0,8.677-3.885,8.677-8.677c0-4.792-3.885-8.677-8.677-8.677s-8.678,3.885-8.678,8.677
		C141.955,687.853,145.84,691.738,150.633,691.738z"/>
	<path d="M603.197,492.913c-0.448,0.251-0.872,0.543-1.284,0.857c-25.082,3.839-46.167,14.962-52.849,47.212
		c-0.1,0.485-0.115,0.94-0.148,1.401c-0.062,0.354-0.156,0.686-0.183,1.065c-2.047,28.631,15.931,58.935,21.519,86.802
		c2.938,14.657-0.742,30.986,6.222,44.967c0.981,1.97,2.095,3.681,3.294,5.224c-3.828,3.594-6.565,8.366-7.41,13.815l9.168,1.422
		l-9.172-1.397c-0.181,1.198-0.281,2.426-0.281,3.676v24.917c0,13.328,10.844,24.172,24.174,24.172h104.56
		c13.326,0,24.17-10.844,24.17-24.172v-24.917c0-6.943-2.983-13.166-7.685-17.579c1.397-1.809,2.662-3.875,3.755-6.268
		c7.219-15.807,3.097-34.389,7.77-51.04c8.483-30.228,29.471-69.985,12.922-100.467c-10.822-19.932-28.254-27.353-47.569-29.973
		c13.822-12.493,22.573-30.496,22.573-50.551c0-37.613-30.602-68.215-68.215-68.215c-37.613,0-68.215,30.602-68.215,68.215
		C580.312,462.285,589.193,480.411,603.197,492.913z M648.527,510.296c0.26,0,0.511-0.036,0.77-0.039
		c8.007-0.115,17.021-0.582,26.107-0.465c-8.959,18.101-17.918,36.202-26.878,54.303c-8.904-17.989-17.807-35.978-26.711-53.967
		c8.189-0.145,16.514,0.168,24.404,0.168c0.596,0,1.237-0.018,1.846-0.023C648.221,510.274,648.371,510.296,648.527,510.296z
		 M729.084,540.815c2.503,10.76-2.347,20.986-5.281,31.438c-3.79,13.505-7.58,27.009-11.37,40.514
		c-2.264,8.067-4.736,15.638-5.48,23.913c-0.883,9.821,2.182,22.772-4.38,31.141c-3.087,3.937-7.804,5.438-12.939,5.963h-13.432
		v0.066c-1.067-0.033-2.126-0.065-3.127-0.065c-11.938,0-11.958,18.553,0,18.553c3.759,0,7.585,0.058,11.376-0.001h16.355
		c3.044,0,5.617,2.575,5.617,5.621v24.917c0,3.046-2.573,5.619-5.617,5.619h-104.56c-3.048,0-5.621-2.573-5.621-5.619v-24.917
		c0-0.294,0.027-0.583,0.071-0.865c0.425-2.71,2.808-4.756,5.55-4.756h20.526c1.259,0.002,2.517,0.001,3.77,0.001
		c11.938,0,11.958-18.553,0-18.553c-0.311,0-0.624,0.006-0.937,0.009v-0.01h-11.575c-6.629-0.466-12.498-2.472-16.053-9.85
		c-4.258-8.838-0.639-20.992-1.876-30.346c-0.931-7.041-3.57-14.005-5.483-20.821c-5.742-20.462-18.359-46.675-17.371-68.084
		c4.868-21.346,18.39-29.662,34.786-32.786c12.828,25.916,25.654,51.831,38.482,77.747c2.997,6.056,13.022,6.056,16.02,0
		c12.9-26.062,25.799-52.124,38.699-78.186C711.231,514.389,724.714,522.021,729.084,540.815z M648.527,392.417
		c27.386,0,49.662,22.279,49.662,49.662c0,26.594-21.023,48.308-47.316,49.545c-1.158,0.024-2.315,0.044-3.461,0.062
		c-26.868-0.601-48.547-22.599-48.547-49.608C598.865,414.695,621.141,392.417,648.527,392.417z"/>
	<path d="M647.123,674.383c-4.792,0-8.677,3.885-8.677,8.677c0,4.792,3.885,8.677,8.677,8.677c4.792,0,8.677-3.885,8.677-8.677
		C655.8,678.268,651.915,674.383,647.123,674.383z"/>
	<path d="M243.265,348.206c14.908-14.908,29.817-29.817,44.725-44.726c8.454-8.453-4.661-21.576-13.119-13.119
		c-14.908,14.908-29.817,29.817-44.725,44.725C221.692,343.541,234.808,356.663,243.265,348.206z"/>
	<path d="M557.297,348.206c8.453,8.454,21.577-4.662,13.119-13.119c-14.909-14.908-29.818-29.817-44.726-44.725
		c-8.453-8.454-21.576,4.662-13.119,13.119C527.481,318.389,542.389,333.298,557.297,348.206z"/>
	<path d="M458.268,251.491c48.493-30.931,61.617-91.929,37.2-142.387c-5.2-10.745-21.204-1.348-16.02,9.364
		c20.423,42.204,8.141,94.068-33.162,118.573c-35.687,21.173-83.11,15.135-111.467-15.621
		c-27.536-29.865-31.873-75.533-9.76-109.793c26.826-41.562,80.556-51.162,122.453-27.405c10.401,5.897,19.761-10.125,9.364-16.02
		c-48.85-27.699-110.879-17.45-144.391,29.043c-29.953,41.557-25.807,100.066,9.214,137.294
		C356.67,271.713,415.257,278.926,458.268,251.491z"/>
	<path d="M472.037,101.294c4.792,0,8.677-3.885,8.677-8.677c0-4.792-3.885-8.677-8.677-8.677c-4.792,0-8.677,3.885-8.677,8.677
		C463.359,97.409,467.245,101.294,472.037,101.294z"/>
	<path d="M400.243,129.713c7.03,0,12.971,5.004,12.971,10.926c0,5.021,4.083,9.104,9.103,9.104c5.016,0,9.1-4.083,9.1-9.104
		c0-12.066-8.128-23.025-20.235-27.276l-1.748-0.614l-0.123-1.849c-0.316-4.765-4.302-8.496-9.069-8.496
		c-4.767,0-8.753,3.731-9.07,8.496l-0.122,1.849l-1.748,0.614c-12.102,4.25-20.23,15.212-20.23,27.276
		c0,16.065,13.981,29.136,31.171,29.136c7.03,0,12.971,5.004,12.971,10.926c0,5.922-5.942,10.926-12.971,10.926
		c-7.026,0-12.964-5.004-12.964-10.926c0-5.021-4.083-9.106-9.104-9.106c-5.02,0-9.104,4.085-9.104,9.106
		c0,12.093,8.158,23.066,20.302,27.303l1.63,0.57l0.232,1.71c0.6,4.495,4.476,7.883,9.007,7.883c4.531,0,8.407-3.391,9.01-7.886
		l0.232-1.71l1.63-0.568c12.144-4.237,20.302-15.21,20.302-27.303c0-16.065-13.98-29.136-31.171-29.136
		c-7.026,0-12.967-5.004-12.967-10.926S393.217,129.713,400.243,129.713z"/>
	<path d="M505.81,557.308v-17.133c0-15.283-12.434-27.714-27.712-27.714H348.771c-15.283,0-27.716,12.431-27.716,27.714v17.133
		c0,3.214,0.578,6.288,1.589,9.161h-0.176c-15.283,0-27.716,12.431-27.716,27.714v17.133c0,15.283,12.434,27.714,27.716,27.714
		h0.176c-1.011,2.873-1.589,5.947-1.589,9.161v17.133c0,3.214,0.578,6.289,1.589,9.161h-0.176
		c-15.283,0-27.716,12.431-27.716,27.714v17.133c0,15.283,12.434,27.714,27.716,27.714h129.328
		c15.278,0,27.712-12.431,27.712-27.714v-17.133c0-3.214-0.578-6.288-1.589-9.161h0.18c15.278,0,27.712-12.431,27.712-27.714
		v-17.133c0-15.283-12.434-27.714-27.712-27.714h-0.18c1.011-2.873,1.589-5.947,1.589-9.161v-17.133
		c0-3.214-0.578-6.288-1.589-9.161h0.18C493.377,585.022,505.81,572.591,505.81,557.308z M339.608,557.308v-17.133
		c0-5.05,4.113-9.161,9.163-9.161h129.328c5.05,0,9.159,4.111,9.159,9.161v17.133c0,5.05-4.108,9.161-9.159,9.161h-26.303H348.771
		C343.72,566.469,339.608,562.359,339.608,557.308z M460.954,702.199v17.133c0,5.05-4.108,9.161-9.159,9.161H322.468
		c-5.05,0-9.163-4.111-9.163-9.161v-17.133c0-5.051,4.113-9.161,9.163-9.161h26.303h103.025
		C456.846,693.038,460.954,697.149,460.954,702.199z M487.257,648.191v17.133c0,5.051-4.108,9.161-9.159,9.161h-26.303H348.771
		c-5.05,0-9.163-4.111-9.163-9.161v-17.133c0-5.05,4.113-9.161,9.163-9.161h103.025h26.303
		C483.149,639.03,487.257,643.141,487.257,648.191z M460.954,594.183v17.133c0,5.05-4.108,9.161-9.159,9.161H348.771h-26.303
		c-5.05,0-9.163-4.111-9.163-9.161v-17.133c0-5.05,4.113-9.161,9.163-9.161h26.303h103.025
		C456.846,585.022,460.954,589.133,460.954,594.183z"/>
	<path fill="#F16235" d="M339.608,557.308v-17.133c0-5.05,4.113-9.161,9.163-9.161h129.328c5.05,0,9.159,4.111,9.159,9.161v17.133
		c0,5.05-4.108,9.161-9.159,9.161h-26.303H348.771C343.72,566.469,339.608,562.359,339.608,557.308z"/>
	<path fill="#F16235" d="M487.257,648.191v17.133c0,5.051-4.108,9.161-9.159,9.161h-26.303H348.771c-5.05,0-9.163-4.111-9.163-9.161
		v-17.133c0-5.05,4.113-9.161,9.163-9.161h103.025h26.303C483.149,639.03,487.257,643.141,487.257,648.191z"/>
	<path fill="#F16235" d="M460.954,594.183v17.133c0,5.05-4.108,9.161-9.159,9.161H348.771h-26.303c-5.05,0-9.163-4.111-9.163-9.161
		v-17.133c0-5.05,4.113-9.161,9.163-9.161h26.303h103.025C456.846,585.022,460.954,589.133,460.954,594.183z"/>
	<path fill="#F16235" d="M460.954,702.199v17.133c0,5.05-4.108,9.161-9.159,9.161H322.468c-5.05,0-9.163-4.111-9.163-9.161v-17.133
		c0-5.051,4.113-9.161,9.163-9.161h26.303h103.025C456.846,693.038,460.954,697.149,460.954,702.199z"/>
</g>
</svg>
